<?xml version="1.0" ?><svg viewBox="0 0 64 64" xmlns="http://www.w3.org/2000/svg"><defs><style>.cls-1{fill:#8bc4ff;}.cls-2{fill:#d1e7ff;}.cls-3{fill:#a2d0ff;}.cls-4{fill:#2e58ff;}</style></defs><title/><g data-name="Check out" id="Check_out"><path class="cls-1" d="M6,8H58a4,4,0,0,1,4,4v8a0,0,0,0,1,0,0H2a0,0,0,0,1,0,0V12A4,4,0,0,1,6,8Z"/><path class="cls-2" d="M62,50v8a4,4,0,0,1-4,4H6a4,4,0,0,1-4-4V20H62V34"/><polygon class="cls-3" points="49 31 49 38 27 38 27 46 49 46 49 53 62 42 49 31"/><path class="cls-2" d="M16,14a4,4,0,0,1-4-4V6a4,4,0,0,1,8,0v4A4,4,0,0,1,16,14Z"/><path class="cls-2" d="M48,14a4,4,0,0,1-4-4V6a4,4,0,0,1,8,0v4A4,4,0,0,1,48,14Z"/><path class="cls-4" d="M58,6H54A6,6,0,0,0,42,6H22A6,6,0,0,0,10,6H6a6,6,0,0,0-6,6V58a6,6,0,0,0,6,6H58a6,6,0,0,0,6-6V50a2,2,0,0,0-4,0v8a2,2,0,0,1-2,2H6a2,2,0,0,1-2-2V22H60V34a2,2,0,0,0,4,0V12A6,6,0,0,0,58,6ZM48,4a2,2,0,0,1,2,2v4a2,2,0,0,1-4,0V6A2,2,0,0,1,48,4ZM16,4a2,2,0,0,1,2,2v4a2,2,0,0,1-4,0V6A2,2,0,0,1,16,4ZM4,18V12a2,2,0,0,1,2-2h4a6,6,0,0,0,12,0H42a6,6,0,0,0,12,0h4a2,2,0,0,1,2,2v6Z"/><path class="cls-4" d="M50.29,54.53l13-11a2,2,0,0,0,0-3.06l-13-11A2,2,0,0,0,47,31v5H27a2,2,0,0,0-2,2v8a2,2,0,0,0,2,2H47v5A2,2,0,0,0,50.29,54.53ZM29,44V40H49a2,2,0,0,0,2-2V35.31L58.9,42,51,48.69V46a2,2,0,0,0-2-2Z"/></g></svg>