<?xml version="1.0" ?><svg height="384.442" viewBox="0 0 346.973 384.442" width="346.973" xmlns="http://www.w3.org/2000/svg"><g data-name="Group 29" id="Group_29" transform="translate(1393.714 -551.198)"><path d="M-1364.25,935.64c-10.024-2.623-18.434-7.562-24-16.629a34.8,34.8,0,0,1-5.432-18.455q-.045-92.418.018-184.834a30.731,30.731,0,0,1,9.821-22.784c6.4-6.143,12.951-12.128,19.548-18.057a7.942,7.942,0,0,0,2.835-6.517c-.095-21.62-.067-43.24-.046-64.86.012-12.683,7.913-20.614,20.531-20.623,23.87-.015,47.74-.045,71.609.046a10.171,10.171,0,0,0,7.725-2.83c7.6-7.232,15.419-14.242,23.135-21.356,10.786-9.945,25.46-10.082,36.247-.257,7.945,7.235,15.9,14.461,23.7,21.854a9.331,9.331,0,0,0,7.065,2.577q35.991-.1,71.984-.034c12.615.009,20.513,7.94,20.525,20.628.022,21.5.061,42.991-.054,64.486a8.636,8.636,0,0,0,3.124,7.148c5.984,5.3,11.774,10.824,17.7,16.192,8.006,7.249,11.5,16.262,11.48,27.017q-.135,89.605-.047,179.21c0,19.552-9.6,32.232-28.426,37.651a9.935,9.935,0,0,0-1.036.427Zm144.375-339.45q-59.247,0-118.494,0c-7.816,0-9.818,1.977-9.82,9.713q-.015,57.372-.062,114.744a7.823,7.823,0,0,0,3.4,6.916q59.13,45.81,118.138,91.776c6.015,4.677,6.96,4.722,12.973.045q58.9-45.805,117.819-91.579a8.478,8.478,0,0,0,3.688-7.532c-.107-37.872-.066-75.746-.07-113.619,0-8.754-1.732-10.466-10.573-10.467Q-1161.378,596.186-1219.875,596.19Zm-.364,326.4q66.354,0,132.707-.029a89.313,89.313,0,0,0,8.951-.666c1.331-.136,3.17-.137,3.585-1.491.457-1.5-1.388-2.158-2.362-3.02q-24.69-21.868-49.429-43.683-29.916-26.427-59.791-52.9c-2.376-2.115-4.045-2.41-6.607-.226-4.748,4.049-9.762,7.8-14.779,11.518-8.125,6.026-16.459,6.015-24.561.014-4.216-3.123-8.313-6.407-12.464-9.617-5.76-4.454-5.71-4.4-11.109.382q-31.436,27.822-62.928,55.578-22.482,19.84-44.971,39.672c-.7.621-1.921,1.145-1.554,2.313.339,1.075,1.631,1.133,2.546,1.28a60.28,60.28,0,0,0,9.685.9Q-1286.78,922.561-1220.239,922.591Zm-158.885-204.382c-1.085,1.191-.774,2.236-.774,3.185q-.023,89.189-.016,178.377a24.577,24.577,0,0,0,1.374,8.072c.973,2.834,2.056,3.206,4.421,1.114Q-1320.1,861.17-1266,813.469c4.7-4.154,5.26-3.278-.247-7.565q-49.968-38.9-99.96-77.767C-1370.5,724.8-1374.832,721.507-1379.124,718.209Zm318.539-.433c-1.721,1.215-2.655,1.82-3.53,2.5q-55.158,42.909-110.3,85.829c-5.037,3.92-4.914,3.062-.148,7.29q32.094,28.467,64.3,56.8,22.052,19.462,44.084,38.943c2.314,2.059,3.24,1.3,4.2-1.168,1.3-3.357,1.4-6.815,1.4-10.32q-.006-87.689,0-175.376C-1060.585,721.059-1060.585,719.841-1060.585,717.776ZM-1196.072,582.7c-6.034-5.512-11.3-10.806-17.093-15.448a10.892,10.892,0,0,0-13.362-.479c-6.366,4.45-11.734,10.166-17.6,15.927Zm117.1,108.119c0,7.626,0,14.327,0,21.027,0,1.99.765,2.138,2.21,1,3.223-2.54,6.442-5.087,9.727-7.544,1.715-1.284,1.367-2.331-.008-3.572C-1070.82,698.32-1074.55,694.869-1078.975,690.815Zm-282.557.025c-4.549,4.178-8.467,7.781-12.391,11.377-1.1,1.006-.948,1.93.161,2.79,3.451,2.679,6.894,5.368,10.369,8.014,1.171.892,1.854.5,1.856-.958C-1361.526,705.254-1361.532,698.445-1361.532,690.84Z" data-name="Path 1044" id="Path_1044"/><path d="M-1195.413,668.488a8.527,8.527,0,0,0,.408-1.264c.619-4.936,3.287-7.81,7.064-7.587,4.017.237,6.669,3.4,6.7,8.47.081,13.87.038,27.741.038,41.612,0,2.636.106,5.211,1.462,7.624,2.443,4.345,7.58,7.026,12.246,6.233,5.617-.956,10.343-4.957,10.606-10.13.738-14.516.753-28.93-5.938-42.532-11.862-24.114-37.051-39.429-65.711-35.444-29.393,4.086-50.32,25.279-54.63,53.809a63.4,63.4,0,0,0,54.861,72.279c15.788,2.03,30.241-1.506,43.507-10.185,1.87-1.223,3.611-2.681,6.037-2.761a6.375,6.375,0,0,1,6.445,3.609,6.1,6.1,0,0,1-1.2,7.567,21.229,21.229,0,0,1-4.105,3.236c-27.819,17.035-56.158,17.837-83.846.611-25.037-15.576-36.827-39.256-36.044-68.612.988-37,30.31-68.513,67.213-73.166a77.072,77.072,0,0,1,86.847,68.386c.972,8.707,1.433,17.5-.124,26.133-1.942,10.771-8.808,17.661-19.3,20.138-10.289,2.429-19.378-.486-26.128-8.912-1.939-2.421-2.837-2.64-5.268-.47-11.544,10.307-24.985,12.928-39.413,7.684-14.331-5.209-22.9-15.884-25-31.017-3.193-22.993,13.584-43.024,36.779-44.2a37.991,37.991,0,0,1,23.684,6.93C-1197.325,667.143-1196.439,667.773-1195.413,668.488Zm.413,30.04a25.282,25.282,0,0,0-25.309-25.189,25.276,25.276,0,0,0-25.191,25.3,25.6,25.6,0,0,0,25.117,25.15C-1206.776,723.966-1194.984,712.228-1195,698.528Z" data-name="Path 1045" id="Path_1045"/></g></svg>